<?xml version="1.0" encoding="UTF-8" standalone="no"?>
<!-- Created with Inkscape (http://www.inkscape.org/) -->

<svg
   width="512"
   height="512"
   viewBox="0 0 512 512"
   version="1.1"
   id="svg5"
   xmlns="http://www.w3.org/2000/svg"
   xmlns:svg="http://www.w3.org/2000/svg">
  <defs
     id="defs2">
    <rect
       x="303.79639"
       y="32.588231"
       width="224.97887"
       height="106.68351"
       id="rect93247" />
  </defs>
  <g
     id="layer1">
    <g
       id="g15227"
       transform="translate(-13.802151,20.39578)">
      <path
         id="path13406-3"
         style="fill:#000000;stroke-width:18.4515;stroke-miterlimit:4;stroke-dasharray:none"
         d="m 349.48488,6.9119733 c -31.43289,0.043186 -60.7683,17.0775967 -78.18322,45.3991727 -15.38298,-9.638702 -33.1393,-14.752279 -51.26003,-14.762183 -38.47048,0.03698 -73.2905,22.931508 -88.77808,58.372439 -24.25919,4.207918 -44.796665,20.095158 -54.755035,42.357048 -33.051691,1.98686 -58.848318,28.91262 -58.932089,61.51152 -1.83e-4,34.12241 66.02646,-41.0514 116.027034,-43.42736 42.97141,-47.7005 81.71265,-69.144792 165.64429,-78.876929 74.30721,14.520945 54.58734,-9.152123 89.03953,-21.62628 34.45218,-12.474158 8.56986,-48.9325348 -38.8024,-48.9474277 z" />
    </g>
    <path
       d="M -16.924188,19.235936"
       id="path15139"
       style="stroke-width:1.06126" />
    <g
       id="g30472"
       transform="matrix(1.0423719,0,0,1.0700376,-13.815966,24.956572)">
      <path
         id="path30470"
         style="fill:#e33b00;fill-opacity:1;stroke:none;stroke-width:19.4869;stroke-miterlimit:4;stroke-dasharray:none"
         d="M 350.35352,9.1113281 C 317.58875,9.1575388 287.01025,27.384302 268.85742,57.689453 252.82264,47.37568 234.31432,41.905129 215.42578,41.894531 175.32523,41.934101 139.02858,66.43234 122.88477,104.35547 97.597668,108.8581 76.190872,125.85668 65.810547,149.67773 31.358393,151.80375 4.4681799,180.616 4.3808594,215.49805 c -1.908e-4,36.51226 29.2886536,66.11035 64.3375116,66.06619 35.048859,-0.0442 64.211219,-0.15869 93.260389,-0.0504 0.81186,-18.39716 1.03274,-39.76762 6.31683,-65.96177 14.69079,-72.82474 76.70066,-105.00463 134.05613,-102.51119 42.42058,1.84418 80.82939,25.56804 99.73002,61.38502 21.55945,40.85551 17.84544,74.09595 1.89525,108.089 l 44.61899,-0.46634 c 27.93317,-1.32506 59.26696,-44.53508 59.32009,-89.99008 -0.0111,-42.00327 -25.05235,-78.40415 -60.32227,-87.6875 C 441.39656,49.942411 399.73303,9.1272641 350.35352,9.1113281 Z M 307.2793,196.30273 c -23.71045,-0.23187 -61.90567,15.46495 -59.94422,63.11694 0.3228,7.84226 0.063,15.36012 -0.5293,22.53515 28.97541,0.004 64.77678,0.72884 93.75356,0.69314 11.40883,-33.75277 21.1263,-62.89329 -20.13356,-83.83932 -3.05684,-1.55184 -7.67484,-2.45235 -13.14648,-2.50586 z"
         transform="matrix(0.9593505,0,0,0.9345466,13.373262,-1.6030249)" />
    </g>
    <path
       style="opacity:1;fill:#dcdcdc;fill-opacity:1;stroke:none;stroke-width:1.933;stroke-linecap:butt;stroke-linejoin:miter;stroke-miterlimit:4;stroke-dasharray:none;stroke-opacity:1"
       d="m 371.17724,341.72022 c 32.99796,-33.04696 54.20679,-79.91285 27.37717,-137.40158 -42.35015,-90.74509 -195.36258,-84.26175 -225.16263,32.26491 -13.68701,53.52009 3.39096,90.67062 -23.04928,111.2889 L 35.412116,437.49596 c 0,0 -24.868708,21.81781 -2.521444,48.16932 22.347264,26.35151 49.457014,3.52054 49.457014,3.52054 L 218.10313,380.14523 c 0,0 25.95379,-21.30852 24.32266,-98.27638 -1.24367,-58.68509 52.67737,-74.36204 75.93021,-65.25743 48.28056,18.90416 39.32875,54.56784 29.92524,82.15399 -3.63548,10.66506 -8.75834,19.4612 -20.81919,28.31207 -9.58522,7.03413 -19.05309,10.54578 -38.65189,9.341 -20.91414,-1.28564 -32.45866,-3.3196 -41.90506,-7.71855 0,0 4.48607,19.91417 39.6567,30.01045 33.61752,9.65043 64.28841,3.36705 84.61544,-16.99016 z"
       id="path34509" />
    <path
       style="opacity:0.15449;fill:#000000;fill-opacity:1;stroke:#000000;stroke-width:1;stroke-linecap:butt;stroke-linejoin:miter;stroke-miterlimit:4;stroke-dasharray:none;stroke-opacity:1"
       d="m 387.08335,267.75011 c 1.17119,-38.25081 -11.85298,-59.21208 -34.96423,-73.31859 -30.97359,-18.90548 -68.05152,-23.93356 -108.81413,3.24244 -24.6917,16.4617 -35.63142,61.87953 -34.06222,94.84278 1.32895,27.91651 2.71598,55.86937 -21.29426,75.57625 -52.41093,43.0173 -151.418174,121.16446 -151.418174,121.16446 19.177304,20.60222 45.81735,-0.0716 45.81735,-0.0716 L 218.10313,380.14523 c 0,0 25.95379,-21.30852 24.32266,-98.27638 -1.24367,-58.68509 52.67737,-74.36204 75.93021,-65.25743 48.28056,18.90416 39.89935,52.68429 30.36933,80.23912 -3.37543,9.75961 -7.60512,19.49064 -19.41241,29.16325 -9.8859,8.09858 -20.4617,11.56521 -40.91088,10.07447 -15.27095,-1.11325 -28.04501,-1.71588 -41.33664,-6.98912 15.46102,12.53877 17.92758,16.87214 57.82768,18.83316 32.53737,1.59915 49.06668,-14.80392 58.81835,-24.96619 12.18681,-12.69994 22.86895,-38.78939 23.37192,-55.216 z"
       id="path59798" />
  </g>
</svg>
